
<svg xmlns="http://www.w3.org/2000/svg" xmlns:xlink="http://www.w3.org/1999/xlink" viewBox="0 0 77 80" width="77" height="80" fill="none">
  <svg xmlns="http://www.w3.org/2000/svg" height="77" width="77" viewBox="0 0 24 24" fill="#fff" x="0" y="1.5" opacity="100%">
    <path d="M0 0h24v24H0V0z" fill="none"></path>
    <path d="M12 2c-4.2 0-8 3.22-8 8.2 0 3.32 2.67 7.25 8 11.8 5.33-4.55 8-8.48 8-11.8C20 5.22 16.2 2 12 2zm0 10c-1.1 0-2-.9-2-2s.9-2 2-2 2 .9 2 2-.9 2-2 2z"></path>
  </svg>
  <svg xmlns="http://www.w3.org/2000/svg" height="43" width="43" viewBox="0 0 24 24" fill="#fff" x="18.5" y="13" opacity="100%">
    <path d="M0 0h24v24H0z" fill="none"></path>
    <path d="M12 2C6.48 2 2 6.48 2 12s4.48 10 10 10 10-4.48 10-10S17.52 2 12 2z"></path>
  </svg>
  <svg xmlns="http://www.w3.org/2000/svg" height="40" width="40" viewBox="0 0 24 24" fill="#fb7185" x="19" y="14" opacity="100%">
    <path d="M0 0h24v24H0z" fill="none"></path>
    <path d="M18.06 22.99h1.66c.84 0 1.53-.64 1.63-1.46L23 5.05h-5V1h-1.97v4.05h-4.97l.3 2.34c1.71.47 3.31 1.32 4.27 2.26 1.44 1.42 2.43 2.89 2.43 5.29v8.05zM1 21.99V21h15.03v.99c0 .55-.45 1-1.01 1H2.01c-.56 0-1.01-.45-1.01-1zm15.03-7c0-8-15.03-8-15.03 0h15.03zM1.02 17h15v2h-15z"></path>
  </svg>
  <defs>
    <filter id="filter_dshadow_10_0_2_0000001a" color-interpolation-filters="sRGB" filterUnits="userSpaceOnUse">
      <feFlood flood-opacity="0" result="bg-fix"></feFlood>
      <feColorMatrix in="SourceAlpha" type="matrix" values="0 0 0 0 0 0 0 0 0 0 0 0 0 0 0 0 0 0 127 0" result="alpha"></feColorMatrix>
      <feOffset dx="0" dy="2"></feOffset>
      <feGaussianBlur stdDeviation="5"></feGaussianBlur>
      <feComposite in2="alpha" operator="out"></feComposite>
      <feColorMatrix type="matrix" values="0 0 0 0 0 0 0 0 0 0 0 0 0 0 0 0 0 0 0.1 0"></feColorMatrix>
      <feBlend mode="normal" in2="bg-fix" result="bg-fix-filter_dshadow_10_0_2_0000001a"></feBlend>
      <feBlend in="SourceGraphic" in2="bg-fix-filter_dshadow_10_0_2_0000001a" result="shape"></feBlend>
    </filter>
  </defs>
</svg>