
<svg xmlns="http://www.w3.org/2000/svg" xmlns:xlink="http://www.w3.org/1999/xlink" viewBox="0 0 71 75" width="71" height="75" fill="none">
  <svg xmlns="http://www.w3.org/2000/svg" height="71" width="71" viewBox="0 0 24 24" fill="#fff" x="0" y="2" opacity="100%">
    <path d="M0 0h24v24H0V0z" fill="none"></path>
    <path d="M12 2c-4.2 0-8 3.22-8 8.2 0 3.32 2.67 7.25 8 11.8 5.33-4.55 8-8.48 8-11.8C20 5.22 16.2 2 12 2zm0 10c-1.1 0-2-.9-2-2s.9-2 2-2 2 .9 2 2-.9 2-2 2z"></path>
  </svg>
  <svg xmlns="http://www.w3.org/2000/svg" height="40" width="40" viewBox="0 0 24 24" fill="#fff" x="16" y="13" opacity="100%">
    <path d="M0 0h24v24H0z" fill="none"></path>
    <path d="M12 2C6.48 2 2 6.48 2 12s4.48 10 10 10 10-4.48 10-10S17.52 2 12 2z"></path>
  </svg>
  <svg xmlns="http://www.w3.org/2000/svg" height="40" width="40" viewBox="0 0 24 24" fill="#3b82f6" x="17" y="13" opacity="100%">
    <path d="M0 0h24v24H0z" fill="none"></path>
    <path d="M4 16c0 .88.39 1.67 1 2.22V20c0 .55.45 1 1 1h1c.55 0 1-.45 1-1v-1h8v1c0 .55.45 1 1 1h1c.55 0 1-.45 1-1v-1.78c.61-.55 1-1.34 1-2.22V6c0-3.5-3.58-4-8-4s-8 .5-8 4v10zm3.5 1c-.83 0-1.5-.67-1.5-1.5S6.67 14 7.5 14s1.5.67 1.5 1.5S8.33 17 7.5 17zm9 0c-.83 0-1.5-.67-1.5-1.5s.67-1.5 1.5-1.5 1.5.67 1.5 1.5-.67 1.5-1.5 1.5zm1.5-6H6V6h12v5z"></path>
  </svg>
  <defs>
    <filter id="filter_dshadow_10_0_2_0000001a" color-interpolation-filters="sRGB" filterUnits="userSpaceOnUse">
      <feFlood flood-opacity="0" result="bg-fix"></feFlood>
      <feColorMatrix in="SourceAlpha" type="matrix" values="0 0 0 0 0 0 0 0 0 0 0 0 0 0 0 0 0 0 127 0" result="alpha"></feColorMatrix>
      <feOffset dx="0" dy="2"></feOffset>
      <feGaussianBlur stdDeviation="5"></feGaussianBlur>
      <feComposite in2="alpha" operator="out"></feComposite>
      <feColorMatrix type="matrix" values="0 0 0 0 0 0 0 0 0 0 0 0 0 0 0 0 0 0 0.1 0"></feColorMatrix>
      <feBlend mode="normal" in2="bg-fix" result="bg-fix-filter_dshadow_10_0_2_0000001a"></feBlend>
      <feBlend in="SourceGraphic" in2="bg-fix-filter_dshadow_10_0_2_0000001a" result="shape"></feBlend>
    </filter>
  </defs>
</svg>